<svg xmlns="http://www.w3.org/2000/svg" xmlns:xlink="http://www.w3.org/1999/xlink" width="500" zoomAndPan="magnify" viewBox="0 0 375 374.999991" height="500" preserveAspectRatio="xMidYMid meet" version="1.0"><path fill="#ee3e54" d="M 48.03125 100.675781 C 47.535156 100.675781 47.042969 100.722656 46.558594 100.820312 C 46.070312 100.917969 45.597656 101.0625 45.140625 101.25 C 44.683594 101.441406 44.25 101.671875 43.835938 101.949219 C 43.425781 102.222656 43.042969 102.535156 42.691406 102.886719 C 42.34375 103.238281 42.027344 103.617188 41.753906 104.03125 C 41.476562 104.441406 41.246094 104.878906 41.054688 105.335938 C 40.867188 105.792969 40.722656 106.265625 40.625 106.75 C 40.53125 107.238281 40.480469 107.726562 40.480469 108.222656 C 40.480469 108.71875 40.53125 109.210938 40.625 109.695312 C 40.722656 110.183594 40.867188 110.65625 41.054688 111.113281 C 41.246094 111.570312 41.476562 112.003906 41.753906 112.417969 C 42.027344 112.828125 42.34375 113.210938 42.691406 113.5625 C 43.042969 113.910156 43.425781 114.222656 43.835938 114.5 C 44.25 114.773438 44.683594 115.007812 45.140625 115.199219 C 45.597656 115.386719 46.070312 115.53125 46.558594 115.625 C 47.042969 115.722656 47.535156 115.773438 48.03125 115.773438 C 48.523438 115.773438 49.015625 115.722656 49.503906 115.625 C 49.988281 115.53125 50.460938 115.386719 50.917969 115.199219 C 51.375 115.007812 51.8125 114.773438 52.222656 114.5 C 52.636719 114.222656 53.015625 113.910156 53.367188 113.5625 C 53.71875 113.210938 54.03125 112.828125 54.304688 112.417969 C 54.582031 112.003906 54.8125 111.570312 55.003906 111.113281 C 55.191406 110.65625 55.335938 110.183594 55.433594 109.695312 C 55.527344 109.210938 55.578125 108.71875 55.578125 108.222656 C 55.578125 107.726562 55.527344 107.238281 55.433594 106.75 C 55.335938 106.265625 55.191406 105.792969 55.003906 105.335938 C 54.8125 104.878906 54.582031 104.441406 54.304688 104.03125 C 54.03125 103.617188 53.71875 103.238281 53.367188 102.886719 C 53.015625 102.535156 52.636719 102.222656 52.222656 101.949219 C 51.8125 101.671875 51.375 101.441406 50.917969 101.25 C 50.460938 101.0625 49.988281 100.917969 49.503906 100.820312 C 49.015625 100.722656 48.523438 100.675781 48.03125 100.675781 Z M 48.03125 100.675781 " fill-opacity="1" fill-rule="nonzero"/><path fill="#f1bc19" d="M 289.5625 44.066406 C 289.0625 44.066406 288.582031 44.164062 288.117188 44.355469 C 287.65625 44.546875 287.246094 44.820312 286.894531 45.171875 C 286.539062 45.527344 286.265625 45.933594 286.074219 46.398438 C 285.882812 46.859375 285.789062 47.339844 285.789062 47.839844 C 285.789062 48.339844 285.882812 48.824219 286.074219 49.285156 C 286.265625 49.746094 286.539062 50.15625 286.894531 50.507812 C 287.246094 50.863281 287.65625 51.136719 288.117188 51.328125 C 288.582031 51.519531 289.0625 51.613281 289.5625 51.613281 C 290.0625 51.613281 290.542969 51.519531 291.007812 51.328125 C 291.46875 51.136719 291.875 50.863281 292.230469 50.507812 C 292.585938 50.15625 292.855469 49.746094 293.046875 49.285156 C 293.242188 48.824219 293.335938 48.339844 293.335938 47.839844 C 293.335938 47.339844 293.242188 46.859375 293.046875 46.398438 C 292.855469 45.933594 292.585938 45.527344 292.230469 45.171875 C 291.875 44.820312 291.46875 44.546875 291.007812 44.355469 C 290.542969 44.164062 290.0625 44.066406 289.5625 44.066406 Z M 289.5625 44.066406 " fill-opacity="1" fill-rule="nonzero"/><path fill="#fce0a2" d="M 187.664062 47.839844 C 185.378906 47.839844 183.097656 47.898438 180.8125 48.007812 C 178.53125 48.121094 176.253906 48.289062 173.980469 48.511719 C 171.703125 48.738281 169.4375 49.015625 167.175781 49.351562 C 164.917969 49.6875 162.664062 50.078125 160.425781 50.523438 C 158.183594 50.96875 155.953125 51.46875 153.738281 52.027344 C 151.519531 52.582031 149.316406 53.191406 147.132812 53.855469 C 144.945312 54.515625 142.773438 55.234375 140.625 56.003906 C 138.472656 56.773438 136.339844 57.59375 134.230469 58.46875 C 132.117188 59.34375 130.03125 60.269531 127.964844 61.246094 C 125.898438 62.222656 123.855469 63.25 121.839844 64.328125 C 119.828125 65.40625 117.839844 66.53125 115.878906 67.707031 C 113.917969 68.882812 111.988281 70.105469 110.089844 71.375 C 108.1875 72.644531 106.320312 73.957031 104.484375 75.320312 C 102.648438 76.679688 100.847656 78.085938 99.082031 79.535156 C 97.316406 80.988281 95.585938 82.480469 93.890625 84.011719 C 92.199219 85.546875 90.542969 87.125 88.929688 88.738281 C 87.3125 90.355469 85.738281 92.011719 84.203125 93.703125 C 82.667969 95.394531 81.175781 97.125 79.726562 98.894531 C 78.277344 100.660156 76.871094 102.460938 75.507812 104.296875 C 74.148438 106.132812 72.832031 108 71.5625 109.898438 C 70.292969 111.800781 69.070312 113.730469 67.894531 115.691406 C 66.722656 117.648438 65.59375 119.636719 64.519531 121.652344 C 63.441406 123.667969 62.414062 125.707031 61.4375 127.773438 C 60.460938 129.839844 59.535156 131.929688 58.660156 134.039062 C 57.785156 136.152344 56.960938 138.285156 56.191406 140.433594 C 55.421875 142.585938 54.707031 144.753906 54.042969 146.941406 C 53.378906 149.128906 52.769531 151.332031 52.214844 153.546875 C 51.660156 155.765625 51.160156 157.992188 50.710938 160.234375 C 50.265625 162.476562 49.875 164.726562 49.539062 166.988281 C 49.207031 169.25 48.925781 171.515625 48.703125 173.789062 C 48.476562 176.0625 48.308594 178.34375 48.199219 180.625 C 48.085938 182.90625 48.03125 185.191406 48.03125 187.476562 C 48.03125 189.761719 48.085938 192.046875 48.199219 194.328125 C 48.308594 196.609375 48.476562 198.890625 48.703125 201.164062 C 48.925781 203.4375 49.207031 205.707031 49.539062 207.964844 C 49.875 210.226562 50.265625 212.476562 50.710938 214.71875 C 51.160156 216.960938 51.660156 219.1875 52.214844 221.40625 C 52.769531 223.621094 53.378906 225.824219 54.042969 228.011719 C 54.707031 230.199219 55.421875 232.367188 56.191406 234.519531 C 56.960938 236.671875 57.785156 238.800781 58.660156 240.914062 C 59.535156 243.023438 60.460938 245.113281 61.4375 247.179688 C 62.414062 249.246094 63.441406 251.285156 64.519531 253.300781 C 65.59375 255.316406 66.722656 257.304688 67.894531 259.265625 C 69.070312 261.222656 70.292969 263.15625 71.5625 265.054688 C 72.832031 266.953125 74.148438 268.824219 75.507812 270.65625 C 76.871094 272.492188 78.277344 274.292969 79.726562 276.0625 C 81.175781 277.828125 82.667969 279.558594 84.203125 281.25 C 85.738281 282.945312 87.3125 284.597656 88.929688 286.214844 C 90.542969 287.832031 92.199219 289.40625 93.890625 290.941406 C 95.585938 292.476562 97.316406 293.96875 99.082031 295.417969 C 100.847656 296.867188 102.648438 298.273438 104.484375 299.632812 C 106.320312 300.996094 108.1875 302.308594 110.089844 303.578125 C 111.988281 304.847656 113.917969 306.070312 115.878906 307.246094 C 117.839844 308.421875 119.828125 309.546875 121.839844 310.625 C 123.855469 311.703125 125.898438 312.730469 127.964844 313.707031 C 130.03125 314.683594 132.117188 315.609375 134.230469 316.484375 C 136.339844 317.359375 138.472656 318.179688 140.625 318.949219 C 142.773438 319.71875 144.945312 320.4375 147.132812 321.101562 C 149.316406 321.761719 151.519531 322.371094 153.738281 322.929688 C 155.953125 323.484375 158.183594 323.984375 160.425781 324.429688 C 162.664062 324.875 164.917969 325.265625 167.175781 325.601562 C 169.4375 325.9375 171.703125 326.214844 173.980469 326.441406 C 176.253906 326.664062 178.53125 326.832031 180.8125 326.945312 C 183.097656 327.058594 185.378906 327.113281 187.664062 327.113281 C 189.949219 327.113281 192.234375 327.058594 194.515625 326.945312 C 196.800781 326.832031 199.078125 326.664062 201.351562 326.441406 C 203.625 326.214844 205.894531 325.9375 208.15625 325.601562 C 210.414062 325.265625 212.664062 324.875 214.90625 324.429688 C 217.148438 323.984375 219.378906 323.484375 221.59375 322.929688 C 223.8125 322.371094 226.011719 321.761719 228.199219 321.101562 C 230.386719 320.4375 232.554688 319.71875 234.707031 318.949219 C 236.859375 318.179688 238.992188 317.359375 241.101562 316.484375 C 243.214844 315.609375 245.300781 314.683594 247.367188 313.707031 C 249.433594 312.730469 251.472656 311.703125 253.488281 310.625 C 255.503906 309.546875 257.492188 308.421875 259.453125 307.246094 C 261.414062 306.070312 263.34375 304.847656 265.242188 303.578125 C 267.144531 302.308594 269.011719 300.996094 270.847656 299.632812 C 272.683594 298.273438 274.484375 296.867188 276.25 295.417969 C 278.015625 293.96875 279.746094 292.476562 281.4375 290.941406 C 283.132812 289.40625 284.789062 287.832031 286.402344 286.214844 C 288.019531 284.597656 289.59375 282.945312 291.128906 281.25 C 292.664062 279.558594 294.15625 277.828125 295.605469 276.0625 C 297.054688 274.292969 298.460938 272.492188 299.820312 270.65625 C 301.183594 268.824219 302.5 266.953125 303.769531 265.054688 C 305.039062 263.15625 306.261719 261.222656 307.433594 259.265625 C 308.609375 257.304688 309.734375 255.316406 310.8125 253.300781 C 311.890625 251.285156 312.917969 249.246094 313.894531 247.179688 C 314.871094 245.113281 315.796875 243.023438 316.671875 240.914062 C 317.546875 238.800781 318.367188 236.671875 319.140625 234.519531 C 319.910156 232.367188 320.625 230.199219 321.289062 228.011719 C 321.953125 225.824219 322.5625 223.621094 323.117188 221.40625 C 323.671875 219.1875 324.171875 216.960938 324.617188 214.71875 C 325.0625 212.476562 325.453125 210.226562 325.789062 207.964844 C 326.125 205.707031 326.40625 203.4375 326.628906 201.164062 C 326.851562 198.890625 327.019531 196.609375 327.132812 194.328125 C 327.246094 192.046875 327.300781 189.761719 327.300781 187.476562 C 327.300781 185.191406 327.246094 182.90625 327.132812 180.625 C 327.019531 178.34375 326.851562 176.0625 326.628906 173.789062 C 326.40625 171.515625 326.125 169.25 325.789062 166.988281 C 325.453125 164.726562 325.0625 162.476562 324.617188 160.234375 C 324.171875 157.992188 323.671875 155.765625 323.117188 153.546875 C 322.5625 151.332031 321.953125 149.128906 321.289062 146.941406 C 320.625 144.753906 319.910156 142.585938 319.140625 140.433594 C 318.367188 138.285156 317.546875 136.152344 316.671875 134.039062 C 315.796875 131.929688 314.871094 129.839844 313.894531 127.773438 C 312.917969 125.707031 311.890625 123.667969 310.8125 121.652344 C 309.734375 119.636719 308.609375 117.648438 307.433594 115.691406 C 306.261719 113.730469 305.039062 111.800781 303.769531 109.898438 C 302.5 108 301.183594 106.132812 299.820312 104.296875 C 298.460938 102.460938 297.054688 100.660156 295.605469 98.894531 C 294.15625 97.125 292.664062 95.394531 291.128906 93.703125 C 289.59375 92.011719 288.019531 90.355469 286.402344 88.738281 C 284.789062 87.125 283.132812 85.546875 281.4375 84.011719 C 279.746094 82.480469 278.015625 80.988281 276.25 79.535156 C 274.484375 78.085938 272.683594 76.679688 270.847656 75.320312 C 269.011719 73.957031 267.144531 72.644531 265.242188 71.375 C 263.34375 70.105469 261.414062 68.882812 259.453125 67.707031 C 257.492188 66.53125 255.503906 65.40625 253.488281 64.328125 C 251.472656 63.25 249.433594 62.222656 247.367188 61.246094 C 245.300781 60.269531 243.214844 59.34375 241.101562 58.46875 C 238.992188 57.59375 236.859375 56.773438 234.707031 56.003906 C 232.554688 55.234375 230.386719 54.515625 228.199219 53.855469 C 226.011719 53.191406 223.8125 52.582031 221.59375 52.027344 C 219.378906 51.46875 217.148438 50.96875 214.90625 50.523438 C 212.664062 50.078125 210.414062 49.6875 208.15625 49.351562 C 205.894531 49.015625 203.625 48.738281 201.351562 48.511719 C 199.078125 48.289062 196.800781 48.121094 194.515625 48.007812 C 192.234375 47.898438 189.949219 47.839844 187.664062 47.839844 Z M 187.664062 47.839844 " fill-opacity="1" fill-rule="nonzero"/><path fill="#f1bc19" d="M 312.207031 40.292969 C 311.214844 40.292969 310.234375 40.390625 309.261719 40.582031 C 308.289062 40.777344 307.34375 41.0625 306.429688 41.441406 C 305.511719 41.820312 304.644531 42.285156 303.820312 42.835938 C 302.996094 43.386719 302.230469 44.011719 301.53125 44.714844 C 300.832031 45.414062 300.203125 46.179688 299.652344 47.003906 C 299.101562 47.824219 298.636719 48.695312 298.257812 49.613281 C 297.878906 50.527344 297.59375 51.472656 297.398438 52.445312 C 297.207031 53.414062 297.109375 54.398438 297.109375 55.390625 C 297.109375 56.378906 297.207031 57.363281 297.398438 58.332031 C 297.59375 59.304688 297.878906 60.25 298.257812 61.164062 C 298.636719 62.082031 299.101562 62.953125 299.652344 63.777344 C 300.203125 64.601562 300.832031 65.363281 301.53125 66.0625 C 302.230469 66.765625 302.996094 67.390625 303.820312 67.941406 C 304.644531 68.492188 305.511719 68.957031 306.429688 69.335938 C 307.34375 69.714844 308.289062 70 309.261719 70.195312 C 310.234375 70.386719 311.214844 70.484375 312.207031 70.484375 C 313.195312 70.484375 314.179688 70.386719 315.152344 70.195312 C 316.121094 70 317.066406 69.714844 317.984375 69.335938 C 318.898438 68.957031 319.769531 68.492188 320.59375 67.941406 C 321.417969 67.390625 322.179688 66.765625 322.878906 66.0625 C 323.582031 65.363281 324.207031 64.601562 324.757812 63.777344 C 325.308594 62.953125 325.773438 62.082031 326.152344 61.164062 C 326.53125 60.25 326.816406 59.304688 327.011719 58.332031 C 327.203125 57.363281 327.300781 56.378906 327.300781 55.390625 C 327.300781 54.398438 327.203125 53.414062 327.011719 52.445312 C 326.816406 51.472656 326.53125 50.527344 326.152344 49.613281 C 325.773438 48.695312 325.308594 47.824219 324.757812 47.003906 C 324.207031 46.179688 323.582031 45.414062 322.878906 44.714844 C 322.179688 44.011719 321.417969 43.386719 320.59375 42.835938 C 319.769531 42.285156 318.898438 41.820312 317.984375 41.441406 C 317.066406 41.0625 316.121094 40.777344 315.152344 40.582031 C 314.179688 40.390625 313.195312 40.292969 312.207031 40.292969 Z M 312.207031 40.292969 " fill-opacity="1" fill-rule="nonzero"/><path fill="#ee3e54" d="M 327.300781 81.804688 C 326.804688 81.804688 326.316406 81.855469 325.828125 81.953125 C 325.34375 82.046875 324.871094 82.191406 324.414062 82.382812 C 323.957031 82.570312 323.519531 82.804688 323.109375 83.078125 C 322.695312 83.355469 322.316406 83.667969 321.964844 84.015625 C 321.613281 84.367188 321.300781 84.75 321.027344 85.160156 C 320.75 85.574219 320.519531 86.007812 320.328125 86.464844 C 320.136719 86.921875 319.996094 87.394531 319.898438 87.882812 C 319.800781 88.367188 319.753906 88.859375 319.753906 89.355469 C 319.753906 89.851562 319.800781 90.339844 319.898438 90.828125 C 319.996094 91.3125 320.136719 91.785156 320.328125 92.242188 C 320.519531 92.699219 320.75 93.136719 321.027344 93.546875 C 321.300781 93.960938 321.613281 94.339844 321.964844 94.691406 C 322.316406 95.042969 322.695312 95.355469 323.109375 95.628906 C 323.519531 95.90625 323.957031 96.136719 324.414062 96.328125 C 324.871094 96.515625 325.34375 96.660156 325.828125 96.757812 C 326.316406 96.855469 326.804688 96.902344 327.300781 96.902344 C 327.796875 96.902344 328.289062 96.855469 328.773438 96.757812 C 329.261719 96.660156 329.730469 96.515625 330.191406 96.328125 C 330.648438 96.136719 331.082031 95.90625 331.496094 95.628906 C 331.90625 95.355469 332.289062 95.042969 332.640625 94.691406 C 332.988281 94.339844 333.300781 93.960938 333.578125 93.546875 C 333.851562 93.136719 334.085938 92.699219 334.273438 92.242188 C 334.464844 91.785156 334.609375 91.3125 334.703125 90.828125 C 334.800781 90.339844 334.847656 89.851562 334.847656 89.355469 C 334.847656 88.859375 334.800781 88.367188 334.703125 87.882812 C 334.609375 87.394531 334.464844 86.921875 334.273438 86.464844 C 334.085938 86.007812 333.851562 85.574219 333.578125 85.160156 C 333.300781 84.75 332.988281 84.367188 332.640625 84.015625 C 332.289062 83.667969 331.90625 83.355469 331.496094 83.078125 C 331.082031 82.804688 330.648438 82.570312 330.191406 82.382812 C 329.730469 82.191406 329.261719 82.046875 328.773438 81.953125 C 328.289062 81.855469 327.796875 81.804688 327.300781 81.804688 Z M 327.300781 81.804688 " fill-opacity="1" fill-rule="nonzero"/><path fill="#fbcd59" d="M 304.65625 278.050781 C 304.164062 278.050781 303.671875 278.101562 303.183594 278.195312 C 302.699219 278.292969 302.226562 278.4375 301.769531 278.625 C 301.3125 278.816406 300.875 279.046875 300.464844 279.324219 C 300.050781 279.597656 299.671875 279.910156 299.320312 280.261719 C 298.96875 280.613281 298.65625 280.992188 298.382812 281.40625 C 298.105469 281.816406 297.875 282.253906 297.683594 282.710938 C 297.496094 283.167969 297.351562 283.640625 297.253906 284.125 C 297.160156 284.613281 297.109375 285.105469 297.109375 285.597656 C 297.109375 286.09375 297.160156 286.585938 297.253906 287.070312 C 297.351562 287.558594 297.496094 288.03125 297.683594 288.488281 C 297.875 288.945312 298.105469 289.378906 298.382812 289.792969 C 298.65625 290.203125 298.96875 290.585938 299.320312 290.9375 C 299.671875 291.285156 300.050781 291.601562 300.464844 291.875 C 300.875 292.152344 301.3125 292.382812 301.769531 292.574219 C 302.226562 292.761719 302.699219 292.90625 303.183594 293.003906 C 303.671875 293.097656 304.164062 293.148438 304.65625 293.148438 C 305.152344 293.148438 305.644531 293.097656 306.128906 293.003906 C 306.617188 292.90625 307.089844 292.761719 307.546875 292.574219 C 308.003906 292.382812 308.4375 292.152344 308.851562 291.875 C 309.261719 291.601562 309.644531 291.285156 309.996094 290.9375 C 310.34375 290.585938 310.660156 290.203125 310.933594 289.792969 C 311.210938 289.378906 311.441406 288.945312 311.632812 288.488281 C 311.820312 288.03125 311.964844 287.558594 312.0625 287.070312 C 312.15625 286.585938 312.207031 286.09375 312.207031 285.597656 C 312.207031 285.105469 312.15625 284.613281 312.0625 284.125 C 311.964844 283.640625 311.820312 283.167969 311.632812 282.710938 C 311.441406 282.253906 311.210938 281.816406 310.933594 281.40625 C 310.660156 280.992188 310.34375 280.613281 309.996094 280.261719 C 309.644531 279.910156 309.261719 279.597656 308.851562 279.324219 C 308.4375 279.046875 308.003906 278.816406 307.546875 278.625 C 307.089844 278.4375 306.617188 278.292969 306.128906 278.195312 C 305.644531 278.101562 305.152344 278.050781 304.65625 278.050781 Z M 55.578125 221.441406 C 54.585938 221.441406 53.605469 221.539062 52.632812 221.734375 C 51.660156 221.925781 50.714844 222.210938 49.800781 222.589844 C 48.886719 222.972656 48.015625 223.4375 47.191406 223.988281 C 46.367188 224.539062 45.605469 225.164062 44.902344 225.863281 C 44.203125 226.566406 43.578125 227.328125 43.027344 228.152344 C 42.476562 228.976562 42.011719 229.84375 41.628906 230.761719 C 41.25 231.675781 40.964844 232.621094 40.773438 233.59375 C 40.578125 234.566406 40.480469 235.546875 40.480469 236.539062 C 40.480469 237.53125 40.578125 238.511719 40.773438 239.484375 C 40.964844 240.457031 41.25 241.398438 41.628906 242.316406 C 42.011719 243.230469 42.476562 244.101562 43.027344 244.925781 C 43.578125 245.75 44.203125 246.511719 44.902344 247.210938 C 45.605469 247.914062 46.367188 248.539062 47.191406 249.089844 C 48.015625 249.640625 48.886719 250.105469 49.800781 250.484375 C 50.714844 250.863281 51.660156 251.152344 52.632812 251.34375 C 53.605469 251.539062 54.585938 251.632812 55.578125 251.632812 C 56.570312 251.632812 57.550781 251.539062 58.523438 251.34375 C 59.496094 251.152344 60.4375 250.863281 61.355469 250.484375 C 62.269531 250.105469 63.140625 249.640625 63.964844 249.089844 C 64.789062 248.539062 65.550781 247.914062 66.25 247.210938 C 66.953125 246.511719 67.578125 245.75 68.128906 244.925781 C 68.679688 244.101562 69.144531 243.230469 69.523438 242.316406 C 69.902344 241.398438 70.191406 240.457031 70.382812 239.484375 C 70.578125 238.511719 70.671875 237.53125 70.671875 236.539062 C 70.671875 235.546875 70.578125 234.566406 70.382812 233.59375 C 70.191406 232.621094 69.902344 231.675781 69.523438 230.761719 C 69.144531 229.84375 68.679688 228.976562 68.128906 228.152344 C 67.578125 227.328125 66.953125 226.566406 66.25 225.863281 C 65.550781 225.164062 64.789062 224.539062 63.964844 223.988281 C 63.140625 223.4375 62.269531 222.972656 61.355469 222.589844 C 60.4375 222.210938 59.496094 221.925781 58.523438 221.734375 C 57.550781 221.539062 56.570312 221.441406 55.578125 221.441406 Z M 55.578125 221.441406 " fill-opacity="1" fill-rule="nonzero"/><path fill="#ee3e54" d="M 93.316406 319.566406 C 92.820312 319.566406 92.332031 319.613281 91.84375 319.710938 C 91.359375 319.808594 90.886719 319.949219 90.429688 320.140625 C 89.96875 320.328125 89.535156 320.5625 89.125 320.835938 C 88.710938 321.113281 88.332031 321.425781 87.980469 321.777344 C 87.628906 322.125 87.316406 322.507812 87.042969 322.917969 C 86.765625 323.332031 86.535156 323.765625 86.34375 324.222656 C 86.152344 324.683594 86.011719 325.152344 85.914062 325.640625 C 85.816406 326.125 85.769531 326.617188 85.769531 327.113281 C 85.769531 327.609375 85.816406 328.097656 85.914062 328.585938 C 86.011719 329.070312 86.152344 329.542969 86.34375 330 C 86.535156 330.460938 86.765625 330.894531 87.042969 331.304688 C 87.316406 331.71875 87.628906 332.097656 87.980469 332.449219 C 88.332031 332.800781 88.710938 333.113281 89.125 333.386719 C 89.535156 333.664062 89.96875 333.898438 90.429688 334.085938 C 90.886719 334.277344 91.359375 334.417969 91.84375 334.515625 C 92.332031 334.613281 92.820312 334.660156 93.316406 334.660156 C 93.8125 334.660156 94.304688 334.613281 94.789062 334.515625 C 95.277344 334.417969 95.746094 334.277344 96.207031 334.085938 C 96.664062 333.898438 97.097656 333.664062 97.511719 333.386719 C 97.921875 333.113281 98.304688 332.800781 98.652344 332.449219 C 99.003906 332.097656 99.316406 331.71875 99.59375 331.304688 C 99.867188 330.894531 100.101562 330.460938 100.289062 330 C 100.480469 329.542969 100.625 329.070312 100.71875 328.585938 C 100.816406 328.097656 100.863281 327.609375 100.863281 327.113281 C 100.863281 326.617188 100.816406 326.125 100.71875 325.640625 C 100.625 325.152344 100.480469 324.683594 100.289062 324.222656 C 100.101562 323.765625 99.867188 323.332031 99.59375 322.917969 C 99.316406 322.507812 99.003906 322.125 98.652344 321.777344 C 98.304688 321.425781 97.921875 321.113281 97.511719 320.835938 C 97.097656 320.5625 96.664062 320.328125 96.207031 320.140625 C 95.746094 319.949219 95.277344 319.808594 94.789062 319.710938 C 94.304688 319.613281 93.8125 319.566406 93.316406 319.566406 Z M 93.316406 319.566406 " fill-opacity="1" fill-rule="nonzero"/><path fill="#ffffff" d="M 68.785156 191.25 C 68.167969 191.25 67.554688 191.3125 66.945312 191.433594 C 66.339844 191.554688 65.746094 191.730469 65.175781 191.96875 C 64.601562 192.207031 64.058594 192.496094 63.542969 192.839844 C 63.03125 193.183594 62.554688 193.574219 62.113281 194.015625 C 61.675781 194.453125 61.285156 194.929688 60.941406 195.445312 C 60.597656 195.960938 60.308594 196.503906 60.070312 197.074219 C 59.832031 197.648438 59.652344 198.238281 59.53125 198.84375 C 59.410156 199.453125 59.351562 200.066406 59.351562 200.6875 C 59.351562 201.304688 59.410156 201.917969 59.53125 202.527344 C 59.652344 203.132812 59.832031 203.722656 60.070312 204.296875 C 60.308594 204.867188 60.597656 205.414062 60.941406 205.925781 C 61.285156 206.441406 61.675781 206.917969 62.113281 207.355469 C 62.554688 207.796875 63.03125 208.1875 63.542969 208.53125 C 64.058594 208.875 64.601562 209.164062 65.175781 209.402344 C 65.746094 209.640625 66.339844 209.820312 66.945312 209.9375 C 67.554688 210.058594 68.167969 210.121094 68.785156 210.121094 C 69.40625 210.121094 70.019531 210.058594 70.625 209.9375 C 71.234375 209.820312 71.824219 209.640625 72.398438 209.402344 C 72.96875 209.164062 73.511719 208.875 74.027344 208.53125 C 74.542969 208.1875 75.019531 207.796875 75.457031 207.355469 C 75.894531 206.917969 76.285156 206.441406 76.632812 205.925781 C 76.976562 205.414062 77.265625 204.867188 77.503906 204.296875 C 77.738281 203.722656 77.917969 203.132812 78.039062 202.527344 C 78.160156 201.917969 78.222656 201.304688 78.222656 200.6875 C 78.222656 200.066406 78.160156 199.453125 78.039062 198.84375 C 77.917969 198.238281 77.738281 197.648438 77.503906 197.074219 C 77.265625 196.503906 76.976562 195.960938 76.632812 195.445312 C 76.285156 194.929688 75.894531 194.453125 75.457031 194.015625 C 75.019531 193.574219 74.542969 193.183594 74.027344 192.839844 C 73.511719 192.496094 72.96875 192.207031 72.398438 191.96875 C 71.824219 191.730469 71.234375 191.554688 70.625 191.433594 C 70.019531 191.3125 69.40625 191.25 68.785156 191.25 Z M 68.785156 191.25 " fill-opacity="1" fill-rule="nonzero"/><path fill="#f1bc19" d="M 78.222656 247.859375 C 77.71875 247.859375 77.238281 247.957031 76.777344 248.148438 C 76.316406 248.339844 75.90625 248.613281 75.550781 248.964844 C 75.199219 249.320312 74.925781 249.726562 74.734375 250.191406 C 74.542969 250.652344 74.445312 251.132812 74.445312 251.632812 C 74.445312 252.132812 74.542969 252.617188 74.734375 253.078125 C 74.925781 253.539062 75.199219 253.949219 75.550781 254.300781 C 75.90625 254.65625 76.316406 254.929688 76.777344 255.121094 C 77.238281 255.3125 77.71875 255.40625 78.222656 255.40625 C 78.722656 255.40625 79.203125 255.3125 79.664062 255.121094 C 80.128906 254.929688 80.535156 254.65625 80.890625 254.300781 C 81.242188 253.949219 81.515625 253.539062 81.707031 253.078125 C 81.898438 252.617188 81.996094 252.132812 81.996094 251.632812 C 81.996094 251.132812 81.898438 250.652344 81.707031 250.191406 C 81.515625 249.726562 81.242188 249.320312 80.890625 248.964844 C 80.535156 248.613281 80.128906 248.339844 79.664062 248.148438 C 79.203125 247.957031 78.722656 247.859375 78.222656 247.859375 Z M 78.222656 247.859375 " fill-opacity="1" fill-rule="nonzero"/><path fill="#ffffff" d="M 300.882812 123.320312 C 300.382812 123.320312 299.902344 123.414062 299.441406 123.605469 C 298.976562 123.796875 298.570312 124.070312 298.214844 124.425781 C 297.863281 124.777344 297.589844 125.1875 297.398438 125.648438 C 297.207031 126.113281 297.109375 126.59375 297.109375 127.09375 C 297.109375 127.59375 297.207031 128.074219 297.398438 128.539062 C 297.589844 129 297.863281 129.410156 298.214844 129.761719 C 298.570312 130.117188 298.976562 130.390625 299.441406 130.582031 C 299.902344 130.773438 300.382812 130.867188 300.882812 130.867188 C 301.382812 130.867188 301.867188 130.773438 302.328125 130.582031 C 302.789062 130.390625 303.199219 130.117188 303.550781 129.761719 C 303.90625 129.410156 304.179688 129 304.371094 128.539062 C 304.5625 128.074219 304.65625 127.59375 304.65625 127.09375 C 304.65625 126.59375 304.5625 126.113281 304.371094 125.648438 C 304.179688 125.1875 303.90625 124.777344 303.550781 124.425781 C 303.199219 124.070312 302.789062 123.796875 302.328125 123.605469 C 301.867188 123.414062 301.382812 123.320312 300.882812 123.320312 Z M 300.882812 123.320312 " fill-opacity="1" fill-rule="nonzero"/><path fill="#add4a1" d="M 193.328125 93.128906 C 144.265625 93.128906 104.640625 132.753906 104.640625 181.816406 C 104.640625 198.796875 109.167969 214.273438 117.46875 227.859375 L 104.640625 267.105469 L 142.753906 254.652344 C 157.097656 264.84375 174.457031 270.503906 193.328125 270.503906 C 242.386719 270.503906 282.015625 230.878906 282.015625 181.816406 C 282.015625 132.753906 242.386719 93.128906 193.328125 93.128906 Z M 193.328125 93.128906 " fill-opacity="1" fill-rule="nonzero"/><path fill="#472b29" d="M 193.328125 273.144531 C 174.835938 273.144531 157.472656 267.863281 142.378906 257.671875 L 105.769531 269.75 C 104.640625 270.125 103.882812 269.75 103.128906 268.992188 C 102.375 268.238281 101.996094 267.105469 102.375 266.351562 L 114.828125 228.234375 C 106.527344 214.273438 102.375 198.421875 102.375 181.816406 C 102.375 131.621094 143.511719 90.488281 193.703125 90.488281 C 243.898438 90.488281 285.035156 131.621094 285.035156 181.816406 C 285.035156 232.007812 243.519531 273.144531 193.328125 273.144531 Z M 142.753906 252.011719 C 143.132812 252.011719 143.886719 252.011719 144.265625 252.390625 C 158.605469 262.578125 175.589844 267.863281 193.328125 267.863281 C 240.878906 267.863281 279.371094 229.367188 279.371094 181.816406 C 279.371094 134.265625 240.878906 95.769531 193.328125 95.769531 C 145.773438 95.769531 107.28125 134.265625 107.28125 181.816406 C 107.28125 197.667969 111.433594 213.140625 119.734375 226.347656 C 120.113281 227.101562 120.113281 227.859375 120.113281 228.613281 L 108.789062 262.957031 L 141.625 252.011719 C 142 252.011719 142.378906 252.011719 142.753906 252.011719 Z M 142.753906 252.011719 " fill-opacity="1" fill-rule="nonzero"/><path fill="#5aba9e" d="M 250.3125 138.792969 C 237.105469 121.808594 216.726562 110.488281 193.328125 110.488281 C 154.078125 110.488281 122 142.566406 122 181.816406 C 122 196.535156 126.527344 210.496094 134.453125 221.820312 L 126.90625 245.21875 L 149.546875 238.046875 C 161.625 247.484375 177.097656 253.519531 193.703125 253.519531 C 232.953125 253.519531 265.03125 221.441406 265.03125 182.191406 C 265.03125 178.042969 264.652344 174.269531 263.898438 170.117188 " fill-opacity="1" fill-rule="nonzero"/><path fill="#472b29" d="M 193.328125 255.03125 C 177.097656 255.03125 161.625 249.746094 148.792969 239.933594 L 127.28125 247.105469 C 126.527344 247.484375 125.773438 247.105469 125.394531 246.726562 C 125.019531 246.351562 124.640625 245.59375 125.019531 244.839844 L 132.1875 222.195312 C 124.261719 210.121094 120.113281 196.15625 120.113281 181.816406 C 120.113281 141.433594 152.945312 108.601562 193.328125 108.601562 C 216.347656 108.601562 237.859375 119.167969 251.824219 137.660156 C 252.578125 138.414062 252.199219 139.546875 251.445312 140.300781 C 250.691406 141.058594 249.558594 140.679688 248.804688 139.925781 C 235.59375 122.566406 215.214844 112.375 193.328125 112.375 C 155.210938 112.375 123.886719 143.699219 123.886719 181.816406 C 123.886719 195.78125 128.039062 209.367188 135.960938 220.6875 C 136.339844 221.066406 136.339844 221.820312 136.339844 222.195312 L 129.925781 242.199219 L 148.792969 236.160156 C 149.546875 235.785156 149.925781 236.160156 150.679688 236.539062 C 163.136719 246.351562 177.851562 251.632812 193.703125 251.632812 C 231.820312 251.632812 263.144531 220.308594 263.144531 182.195312 C 263.144531 178.417969 262.765625 174.269531 262.011719 170.496094 C 262.011719 169.363281 262.390625 168.605469 263.523438 168.230469 C 264.652344 168.230469 265.410156 168.605469 265.785156 169.738281 C 266.542969 173.890625 266.917969 178.042969 266.917969 181.816406 C 266.542969 222.195312 233.707031 255.03125 193.328125 255.03125 Z M 193.328125 255.03125 " fill-opacity="1" fill-rule="nonzero"/><path fill="#5aba9e" d="M 261.257812 159.550781 C 259.746094 155.398438 257.859375 151.246094 255.972656 147.09375 " fill-opacity="1" fill-rule="nonzero"/><path fill="#472b29" d="M 261.257812 161.4375 C 260.503906 161.4375 259.746094 161.058594 259.371094 160.304688 C 257.859375 156.152344 256.351562 152 254.085938 148.226562 C 253.710938 147.472656 254.085938 146.339844 254.839844 145.585938 C 255.597656 145.207031 256.730469 145.585938 257.484375 146.339844 C 259.746094 150.492188 261.636719 154.644531 263.144531 158.792969 C 263.523438 159.925781 262.765625 160.683594 262.011719 161.058594 C 261.636719 161.4375 261.257812 161.4375 261.257812 161.4375 Z M 261.257812 161.4375 " fill-opacity="1" fill-rule="nonzero"/><path fill="#fdfcee" d="M 222.007812 220.308594 C 216.726562 220.308594 209.175781 218.421875 198.234375 213.894531 C 183.890625 208.234375 169.550781 196.535156 157.851562 180.683594 L 157.097656 179.929688 C 153.699219 175.398438 147.660156 166.34375 147.660156 157.285156 C 147.285156 150.492188 150.304688 143.699219 155.964844 139.171875 C 157.851562 137.660156 160.492188 136.90625 162.757812 136.90625 L 166.152344 136.90625 C 166.152344 136.90625 166.53125 136.90625 166.910156 136.90625 C 167.285156 136.90625 167.285156 136.90625 167.664062 136.90625 C 168.042969 136.90625 168.417969 137.285156 168.796875 137.660156 C 169.550781 138.414062 169.929688 139.171875 170.304688 140.300781 L 173.324219 146.71875 C 175.589844 151.625 177.476562 156.152344 177.851562 156.53125 C 178.230469 156.90625 178.984375 158.417969 178.230469 159.925781 C 177.476562 161.058594 176.722656 162.191406 175.964844 162.945312 C 175.589844 163.699219 175.210938 164.078125 174.835938 164.457031 L 173.703125 164.832031 C 173.324219 165.210938 172.191406 166.34375 171.4375 167.097656 C 169.550781 168.984375 169.171875 171.25 170.304688 173.136719 C 174.078125 179.175781 178.609375 184.457031 184.269531 188.988281 C 189.929688 193.890625 196.34375 197.667969 203.515625 200.308594 L 204.269531 200.6875 C 205.027344 201.0625 206.15625 201.441406 207.289062 201.441406 C 209.175781 201.441406 210.6875 200.6875 211.820312 199.554688 C 213.707031 197.289062 215.59375 195.023438 217.480469 192.761719 L 218.613281 191.25 C 218.988281 190.875 219.742188 189.742188 221.253906 189.742188 C 221.632812 189.742188 222.386719 189.742188 222.761719 190.117188 C 224.648438 190.875 235.21875 195.402344 238.992188 197.289062 L 240.5 198.042969 L 242.386719 198.796875 C 243.140625 199.175781 243.519531 199.554688 243.519531 200.308594 C 243.519531 203.703125 243.144531 206.722656 242.011719 209.742188 C 240.125 214.273438 232.574219 218.800781 226.539062 219.933594 C 225.40625 220.308594 223.894531 220.308594 222.007812 220.308594 Z M 222.007812 220.308594 " fill-opacity="1" fill-rule="nonzero"/><path fill="#472b29" d="M 166.53125 138.792969 C 166.910156 138.792969 166.910156 138.792969 167.285156 138.792969 C 167.664062 139.171875 168.042969 139.925781 168.417969 140.679688 L 170.683594 145.585938 C 173.703125 152 175.589844 156.90625 175.964844 157.664062 C 176.34375 158.417969 176.34375 158.792969 176.34375 159.171875 C 175.964844 160.304688 175.210938 161.058594 174.457031 161.8125 L 174.078125 162.191406 C 173.703125 162.570312 172.945312 163.324219 172.570312 163.699219 C 172.191406 164.078125 171.058594 165.210938 170.304688 165.964844 C 167.664062 168.230469 167.285156 171.625 169.171875 174.269531 C 172.945312 180.304688 177.851562 185.96875 183.515625 190.496094 C 189.175781 195.402344 195.96875 199.175781 203.140625 201.816406 L 203.894531 202.195312 C 205.027344 202.574219 206.15625 202.949219 207.289062 202.949219 C 209.554688 202.949219 211.820312 202.195312 213.328125 200.6875 C 215.214844 198.421875 217.480469 196.15625 218.988281 193.894531 L 220.121094 192.382812 C 220.5 192.003906 220.875 191.628906 221.253906 191.628906 C 221.632812 191.628906 222.007812 191.628906 222.386719 192.003906 C 224.273438 192.761719 234.460938 197.289062 238.613281 199.175781 L 240.125 199.929688 L 242.011719 200.6875 C 242.011719 203.703125 241.632812 206.722656 240.5 209.367188 C 238.992188 213.515625 232.199219 217.292969 226.539062 218.421875 C 225.40625 218.800781 224.273438 218.800781 222.386719 218.800781 C 218.613281 218.800781 212.195312 217.667969 198.988281 212.761719 C 185.023438 207.480469 170.683594 195.78125 159.359375 180.304688 L 158.605469 179.550781 C 155.210938 175.023438 149.546875 166.71875 149.546875 158.039062 C 149.171875 151.625 152.191406 145.585938 157.097656 141.058594 C 158.605469 139.925781 160.871094 139.171875 162.757812 139.171875 C 162.757812 139.171875 163.136719 139.171875 163.136719 139.171875 C 164.265625 139.171875 165.023438 139.171875 165.777344 139.171875 C 165.777344 138.792969 166.152344 138.792969 166.53125 138.792969 M 166.53125 135.019531 C 166.152344 135.019531 166.152344 135.019531 165.777344 135.019531 L 163.511719 135.019531 C 163.136719 135.019531 163.136719 135.019531 162.757812 135.019531 C 159.738281 135.019531 157.097656 136.152344 154.832031 137.660156 C 148.792969 142.566406 145.773438 150.113281 145.773438 157.285156 C 145.773438 166.71875 152.191406 176.15625 155.964844 181.0625 L 156.71875 181.816406 C 168.417969 197.667969 183.136719 209.742188 197.855469 215.402344 C 209.175781 219.933594 217.101562 221.820312 222.386719 221.820312 C 224.648438 221.820312 226.160156 221.441406 227.292969 221.441406 C 233.707031 220.308594 242.011719 215.78125 243.898438 210.121094 C 245.03125 207.101562 245.785156 203.328125 245.785156 199.929688 C 245.785156 198.421875 244.652344 197.289062 243.519531 196.535156 L 241.632812 195.78125 L 240.125 195.023438 C 236.726562 193.515625 225.78125 188.230469 223.519531 187.476562 C 223.140625 187.476562 222.386719 187.097656 221.253906 187.097656 C 218.613281 187.097656 217.480469 188.988281 217.101562 189.363281 L 215.96875 190.875 C 214.082031 193.136719 212.574219 195.402344 210.6875 197.289062 C 209.933594 198.042969 208.800781 198.421875 207.289062 198.421875 C 206.535156 198.421875 205.78125 198.421875 205.402344 198.042969 L 204.648438 197.667969 C 197.855469 195.023438 191.441406 191.628906 186.15625 186.722656 C 180.871094 182.191406 176.34375 176.910156 172.570312 171.25 C 171.816406 170.117188 172.191406 168.605469 172.945312 167.851562 C 172.945312 167.851562 173.324219 167.476562 173.324219 167.476562 C 174.078125 166.71875 174.835938 165.964844 175.210938 165.210938 L 175.589844 164.832031 C 175.964844 164.457031 176.34375 164.078125 176.722656 163.699219 C 177.851562 162.570312 178.609375 161.4375 179.363281 160.304688 C 180.117188 159.171875 180.496094 157.285156 178.984375 155.019531 C 178.609375 154.265625 176.722656 150.113281 174.457031 145.207031 L 173.703125 143.320312 L 171.4375 138.414062 C 171.058594 137.285156 170.304688 136.152344 169.550781 135.394531 C 168.796875 134.640625 168.042969 134.265625 167.285156 134.265625 C 166.910156 135.019531 166.53125 135.019531 166.53125 135.019531 Z M 166.53125 135.019531 " fill-opacity="1" fill-rule="nonzero"/></svg>